<?xml version="1.0" standalone="no"?>
<!DOCTYPE svg PUBLIC "-//W3C//DTD SVG 20010904//EN"
 "http://www.w3.org/TR/2001/REC-SVG-20010904/DTD/svg10.dtd">
<svg version="1.0" xmlns="http://www.w3.org/2000/svg"
 width="164pt" height="50pt" viewBox="0 0 4999.000000 613.000000"
 preserveAspectRatio="xMidYMid meet">

<g transform="translate(0.000000,613.000000) scale(0.100000,-0.100000)"
fill="#000000" stroke="none">
<path d="M9955 6114 c-202 -31 -366 -94 -748 -286 -554 -280 -1089 -648 -1794
-1235 l-173 -143 -248 0 -248 0 -53 -251 c-29 -138 -57 -263 -61 -277 -5 -16
-187 -207 -437 -460 l-430 -432 -35 52 c-82 123 -192 205 -333 247 -169 50
-512 88 -705 77 -365 -20 -751 -212 -965 -479 -144 -179 -227 -406 -340 -925
-125 -574 -198 -1067 -199 -1352 l-1 -185 29 -53 c37 -66 157 -196 239 -258
152 -115 311 -145 762 -145 427 0 514 24 805 216 148 97 266 204 314 284 90
148 194 470 340 1056 114 458 170 746 182 938 5 91 -6 255 -22 313 -4 17 25
54 147 185 160 171 558 569 569 569 4 0 -160 -776 -363 -1725 -204 -949 -367
-1728 -364 -1731 4 -4 212 -7 463 -8 l458 -1 449 2164 c326 1570 446 2166 437
2171 -14 9 94 89 332 248 505 338 1210 709 1473 777 110 28 248 38 363 26 275
-29 408 -110 460 -281 20 -68 22 -289 3 -428 -7 -51 -11 -95 -9 -98 7 -6 188
431 220 528 57 178 74 395 43 543 -20 92 -73 203 -126 260 -99 108 -212 133
-434 99z m-5118 -3380 c83 -42 103 -84 103 -219 0 -88 -20 -303 -36 -390 -3
-19 -39 -69 -91 -130 -226 -264 -416 -514 -633 -838 -69 -102 -127 -181 -128
-176 -5 13 30 209 108 599 156 778 224 1026 303 1108 62 64 114 82 229 79 73
-3 96 -8 145 -33z m-42 -1235 c-108 -524 -168 -706 -259 -786 -83 -73 -237
-115 -338 -94 -88 19 -157 77 -145 122 5 19 769 941 774 935 2 -2 -13 -81 -32
-177z"/>
<path d="M26050 4480 c-179 -25 -300 -68 -488 -175 -139 -79 -283 -186 -348
-258 -79 -88 -162 -205 -198 -280 -80 -171 -189 -562 -386 -1392 -218 -918
-253 -1125 -253 -1480 1 -209 15 -284 83 -413 49 -96 152 -226 223 -283 158
-127 410 -189 767 -189 499 0 935 146 1223 410 198 181 394 545 502 930 27 95
85 370 85 401 0 19 -9 19 -502 17 l-502 -3 -42 -205 c-77 -380 -118 -502 -208
-619 -89 -115 -147 -149 -287 -164 -178 -20 -297 16 -342 103 -22 43 -18 109
23 355 79 467 370 1880 449 2182 49 184 110 277 219 330 108 53 276 42 412
-27 72 -37 107 -77 116 -136 13 -90 -15 -316 -73 -581 -15 -68 -25 -125 -22
-127 2 -3 225 -2 494 2 l489 7 13 65 c41 198 84 470 95 590 13 157 2 292 -32
383 -40 108 -175 278 -299 378 -179 146 -327 178 -836 184 -170 2 -339 0 -375
-5z"/>
<path d="M30996 4439 c-14 -42 -926 -4322 -922 -4326 3 -3 211 -8 463 -11
l458 -5 449 2166 c248 1192 447 2169 444 2173 -4 3 -205 8 -447 11 -373 5
-441 4 -445 -8z"/>
<path d="M8149 4040 c-42 -212 -75 -386 -75 -386 1 -1 202 -4 447 -7 l446 -7
76 382 c42 210 74 384 72 387 -3 3 -173 6 -378 8 -204 2 -404 4 -443 6 l-70 2
-75 -385z"/>
<path d="M19645 4280 c-15 -80 -49 -253 -75 -385 -27 -132 -47 -241 -47 -241
1 -1 203 -4 448 -7 l446 -7 72 368 c40 202 74 374 77 383 4 15 -12 18 -138 23
-79 4 -281 8 -449 9 l-307 2 -27 -145z"/>
<path d="M43734 4390 c-3 -19 -37 -192 -74 -385 -38 -192 -68 -350 -67 -351 1
-1 202 -3 447 -5 l445 -4 76 380 76 380 -96 7 c-53 4 -255 9 -449 10 l-352 3
-6 -35z"/>
<path d="M895 4388 c-4 -18 -205 -987 -449 -2153 l-442 -2120 35 -7 c20 -3
238 -7 485 -8 l449 -2 163 823 c90 453 166 834 169 845 5 22 6 22 377 27 284
4 393 9 455 21 271 53 507 181 713 386 214 213 357 487 434 830 46 209 60 332
61 535 0 169 -2 199 -23 270 -35 121 -86 210 -167 291 -200 202 -444 241
-1790 284 -170 6 -344 10 -387 10 l-77 0 -6 -32z m1219 -733 c109 -19 162 -53
201 -130 28 -56 30 -64 29 -174 -4 -357 -141 -654 -341 -738 -67 -27 -184 -42
-340 -43 -84 0 -153 3 -153 7 0 9 201 1066 205 1081 6 17 296 16 399 -3z"/>
<path d="M14085 4388 c-11 -46 -903 -4263 -901 -4264 0 -1 204 -4 452 -8 l452
-6 17 97 c9 54 46 242 80 418 94 474 132 603 191 663 28 28 39 32 83 32 44 0
51 -3 56 -22 6 -24 235 -1171 235 -1175 0 -2 223 -3 496 -3 492 0 495 0 489
20 -4 11 -123 435 -265 942 l-259 921 25 30 c13 16 262 301 552 634 290 333
528 608 530 613 1 4 -143 10 -320 14 -178 3 -386 9 -463 12 l-140 6 -424 -506
c-234 -278 -426 -504 -428 -503 -1 2 96 473 217 1047 121 573 219 1044 218
1045 -2 1 -202 6 -445 9 l-442 7 -6 -23z"/>
<path d="M21015 4398 c-7 -21 -905 -4272 -902 -4274 1 0 205 -4 452 -8 l450
-6 53 284 c127 678 182 875 254 912 28 15 118 20 118 7 1 -19 238 -1185 242
-1189 3 -2 225 -3 495 -2 l489 3 -263 935 c-205 727 -261 939 -253 953 6 10
257 300 557 645 l547 627 -250 6 c-137 4 -346 10 -466 13 l-216 6 -424 -504
c-232 -278 -424 -502 -426 -497 -1 4 97 475 217 1046 121 572 219 1040 218
1041 -1 1 -201 5 -445 8 -362 6 -443 5 -447 -6z"/>
<path d="M40607 4368 c-31 -125 -907 -4242 -903 -4245 8 -9 1000 -33 1006 -25
4 4 83 386 176 850 l169 842 200 0 c301 0 344 -12 386 -105 44 -99 37 -194
-46 -606 -29 -146 -65 -339 -79 -430 -33 -211 -61 -498 -50 -509 5 -4 248 -10
541 -14 l532 -6 0 233 c-1 251 -1 254 68 827 40 329 47 413 47 580 1 182 0
198 -21 236 -30 56 -79 97 -175 145 -100 50 -128 77 -128 122 0 41 28 69 130
127 122 70 190 119 257 187 188 188 313 505 343 869 17 215 -10 384 -90 549
-121 250 -293 325 -840 365 -166 12 -895 29 -1266 30 l-252 0 -5 -22z m1308
-748 c56 -17 117 -83 145 -155 48 -128 33 -305 -45 -522 -44 -124 -83 -188
-174 -284 l-73 -79 -295 0 c-276 0 -294 1 -289 18 3 9 62 242 131 517 69 275
128 506 131 514 3 11 42 13 217 8 122 -3 229 -10 252 -17z"/>
<path d="M9625 3791 c-49 -249 -92 -457 -95 -462 -3 -5 -90 -12 -192 -15
l-185 -7 -63 -296 c-34 -163 -64 -306 -67 -318 l-5 -23 201 0 c111 0 201 -3
201 -6 0 -3 -36 -160 -81 -347 -306 -1298 -364 -1588 -357 -1784 4 -107 6
-115 46 -195 55 -110 90 -151 165 -188 108 -52 217 -64 639 -64 201 -1 369 1
372 4 3 3 26 138 51 300 25 162 48 307 51 323 l6 27 -175 0 c-174 0 -176 0
-206 26 -58 49 -71 -23 255 1409 57 253 109 470 114 483 9 22 12 22 214 22
203 0 204 0 209 23 11 43 117 594 117 606 0 8 -56 11 -194 11 -107 0 -197 3
-199 8 -2 4 38 198 89 432 51 234 93 435 94 448 0 22 -1 22 -143 22 -79 0
-285 3 -458 7 l-314 6 -90 -452z"/>
<path d="M32412 3784 c-50 -251 -93 -458 -95 -460 -2 -2 -87 -7 -190 -10 -103
-4 -187 -8 -187 -9 0 -1 -29 -140 -65 -309 -36 -169 -65 -312 -65 -317 0 -5
83 -9 201 -9 l201 0 -7 -27 c-26 -104 -244 -1038 -294 -1258 -118 -531 -145
-698 -139 -852 5 -128 27 -192 93 -282 56 -76 101 -106 197 -130 133 -34 536
-51 824 -35 l111 7 50 316 c27 174 48 319 46 324 -2 4 -78 7 -169 7 -183 0
-212 7 -233 58 -15 35 -8 77 61 392 50 232 325 1441 334 1473 5 15 24 17 213
17 l209 0 61 314 c33 172 61 316 61 320 0 3 -91 6 -201 6 l-201 0 6 23 c21 81
189 877 185 881 -2 2 -209 7 -460 11 l-456 7 -91 -458z"/>
<path d="M28932 3399 c-546 -29 -822 -164 -1054 -514 -119 -180 -177 -303
-190 -402 -6 -45 -7 -102 -4 -127 l7 -46 385 -2 c211 -1 410 -2 441 -3 l57 0
12 85 c34 232 141 361 353 424 139 41 226 4 283 -119 21 -45 23 -64 23 -195
-1 -224 -20 -262 -172 -342 -119 -63 -260 -110 -455 -153 -319 -70 -453 -112
-592 -181 -137 -69 -212 -128 -405 -317 -147 -145 -183 -195 -217 -302 -48
-151 -66 -291 -68 -510 -1 -253 12 -314 97 -432 36 -51 151 -145 220 -179 123
-63 531 -53 692 16 24 10 97 50 162 88 65 38 166 94 224 125 l106 57 7 -92 c3
-50 6 -111 6 -135 l0 -43 423 2 422 3 3 50 c6 129 35 401 54 510 11 66 49 237
85 380 157 633 279 1245 303 1524 34 396 -122 663 -450 770 -192 62 -411 79
-758 60z m103 -1826 c-18 -165 -38 -288 -60 -380 -61 -254 -160 -417 -287
-473 -61 -26 -230 -52 -326 -48 -67 3 -77 6 -93 28 -26 35 -42 157 -37 268 5
81 10 102 41 165 67 135 211 269 382 355 106 53 330 141 363 141 23 1 23 -1
17 -56z"/>
<path d="M45899 3400 c-363 -21 -572 -77 -763 -204 -143 -95 -253 -226 -385
-456 -88 -154 -101 -195 -101 -327 l0 -103 353 0 c195 0 394 -3 444 -6 l90 -7
7 68 c9 92 49 208 94 275 84 124 308 219 425 181 53 -18 113 -88 133 -158 23
-76 23 -244 0 -333 -21 -83 -53 -116 -165 -174 -152 -79 -236 -105 -578 -181
-285 -63 -488 -145 -638 -257 -38 -29 -140 -123 -227 -208 -173 -171 -201
-214 -237 -356 -39 -156 -55 -292 -55 -479 0 -191 11 -261 56 -349 51 -99 226
-241 330 -267 69 -18 377 -18 478 0 102 18 159 41 270 107 134 80 368 202 375
196 3 -3 5 -63 5 -134 l0 -128 424 0 423 0 7 113 c20 326 45 471 156 922 180
731 283 1291 284 1540 0 163 -13 224 -76 355 -92 191 -279 308 -568 354 -113
19 -387 27 -561 16z m96 -1842 c-41 -441 -164 -755 -328 -831 -58 -28 -161
-47 -290 -54 -103 -5 -119 -4 -136 11 -30 27 -46 110 -45 241 0 97 4 130 20
171 61 151 228 310 427 405 109 51 306 127 336 128 23 1 23 0 16 -71z"/>
<path d="M18100 3384 c-88 -18 -225 -88 -340 -174 -193 -142 -335 -234 -338
-218 -3 14 42 267 54 311 5 16 -20 17 -433 17 l-439 0 -323 -1601 c-177 -880
-321 -1602 -319 -1604 2 -2 211 -6 465 -10 l462 -8 5 24 c3 13 62 317 131 674
261 1352 330 1676 374 1764 40 78 128 124 236 124 108 0 190 -44 221 -119 20
-47 17 -172 -6 -305 -51 -297 -238 -1167 -321 -1499 -43 -172 -159 -592 -175
-634 -6 -14 41 -16 468 -16 l475 0 57 268 c234 1093 376 1783 429 2092 26 157
31 211 32 355 0 164 -1 172 -27 228 -15 32 -40 73 -56 92 -101 124 -375 257
-521 254 -25 0 -75 -7 -111 -15z"/>
<path d="M12030 3384 c-14 -2 -56 -9 -95 -15 -88 -15 -298 -81 -392 -124 -243
-112 -431 -295 -543 -531 -119 -248 -255 -798 -375 -1514 -67 -400 -77 -519
-51 -641 53 -249 198 -392 478 -473 263 -76 714 -87 983 -24 233 54 447 174
636 356 155 148 238 272 298 445 31 89 71 264 71 311 l0 26 -428 0 -429 0 -21
-109 c-41 -206 -111 -357 -197 -420 -94 -69 -243 -79 -352 -25 -145 73 -157
206 -60 687 30 147 56 270 59 273 3 3 357 0 787 -7 430 -7 784 -9 788 -6 10
10 109 501 139 687 32 201 42 428 25 545 -19 127 -55 193 -165 301 -76 76
-108 99 -186 138 -96 47 -226 85 -361 106 -73 11 -560 23 -609 14z m321 -570
c121 -55 157 -133 145 -318 -7 -116 -25 -198 -62 -291 l-27 -68 -246 6 c-135
4 -282 7 -326 7 -44 0 -86 4 -93 9 -31 19 47 334 116 465 40 76 119 169 164
192 81 42 233 41 329 -2z"/>
<path d="M34845 3383 c-230 -28 -481 -118 -659 -237 -167 -112 -257 -214 -350
-395 -128 -251 -243 -688 -375 -1431 -104 -590 -106 -735 -11 -935 83 -175
294 -291 622 -342 159 -25 563 -25 697 0 252 48 467 153 673 331 236 203 367
449 413 779 l6 47 -430 0 -431 0 -4 -23 c-21 -115 -70 -286 -98 -349 -71 -153
-157 -212 -313 -213 -103 0 -151 14 -203 59 -69 60 -92 157 -73 311 6 50 34
211 63 359 l53 269 315 -6 c721 -15 1270 -20 1270 -11 0 5 27 141 60 303 82
403 103 559 104 756 0 235 -29 325 -148 452 -190 204 -470 285 -965 282 -102
-1 -199 -4 -216 -6z m312 -563 c126 -56 153 -103 153 -275 0 -133 -16 -223
-57 -334 l-28 -73 -320 7 c-176 3 -328 9 -339 12 -16 5 -18 12 -11 66 10 95
61 280 99 363 67 143 163 238 260 255 68 13 192 2 243 -21z"/>
<path d="M48971 2748 c-239 -1121 -363 -1662 -412 -1793 -39 -105 -129 -176
-244 -191 -99 -14 -205 49 -221 131 -18 96 62 529 325 1754 78 360 141 658
141 663 0 4 -210 7 -467 6 l-466 -3 -118 -560 c-242 -1142 -401 -1914 -425
-2053 -46 -274 -27 -361 110 -498 119 -118 244 -174 438 -196 93 -10 123 -10
201 3 189 33 361 129 566 316 l84 77 -7 -145 -7 -146 258 -7 c142 -3 332 -9
423 -12 l165 -7 337 1614 c185 888 335 1615 334 1615 0 1 -201 4 -446 8 l-445
7 -124 -583z"/>
<path d="M8304 3313 l-351 -3 -11 -53 c-39 -195 -654 -3136 -658 -3149 -5 -17
22 -18 465 -18 l471 0 5 23 c23 98 655 3182 655 3198 0 5 -51 8 -112 7 -62 -2
-271 -4 -464 -5z"/>
<path d="M19753 3313 c-194 -2 -353 -6 -353 -8 0 -5 -655 -3151 -665 -3192
l-5 -23 469 0 469 0 5 23 c12 48 657 3187 657 3197 0 6 -40 9 -112 8 -62 -2
-272 -4 -465 -5z"/>
<path d="M36510 3318 c0 -2 77 -379 169 -838 l169 -835 -530 -763 c-292 -420
-527 -766 -523 -770 4 -4 213 -8 465 -10 l459 -3 67 133 c252 504 385 717 440
706 18 -3 22 -36 51 -407 18 -222 34 -406 37 -408 7 -7 874 9 886 17 8 5 -42
204 -165 661 -97 360 -187 693 -200 740 l-23 86 523 834 523 834 -131 6 c-73
4 -273 7 -444 8 l-313 1 -86 -172 c-47 -95 -152 -301 -232 -458 l-146 -285
-51 450 -50 450 -45 6 c-46 6 -850 23 -850 17z"/>
<path d="M43823 3313 l-351 -3 -12 -53 c-22 -104 -660 -3159 -660 -3163 0 -2
212 -4 470 -4 259 0 470 2 470 5 0 2 126 618 281 1367 252 1227 379 1846 379
1855 0 2 -51 2 -112 1 -62 -2 -271 -4 -465 -5z"/>
</g>
</svg>
